<svg width="53" height="53" viewBox="0 0 53 53" fill="none" xmlns="http://www.w3.org/2000/svg">
<g clip-path="url(#clip0_12_137)">
<path d="M43.6868 27.4499H42.0306V2.58499C42.0306 2.0728 41.6066 1.65625 41.0849 1.65625H11.2678C10.7465 1.65625 10.3225 2.0728 10.3225 2.58499V22.3291H8.66626V2.58499C8.66626 1.15979 9.83309 0 11.2678 0H41.0849C42.5196 0 43.6868 1.15979 43.6868 2.58499V27.4499ZM21.5345 45.4649H29.2203V47.1211H21.5345V45.4649ZM16.1504 41.6394H26.56V43.2956H16.1504V41.6394Z" fill="#121212"/>
<path d="M12.5684 5.17081H39.7843V6.82706H12.5684V5.17081ZM49.5325 53H47.8763V49.8833L48.2121 49.6349C49.4427 48.724 50.1483 47.3348 50.1483 45.8239V36.1166L50.0447 34.0127C50.0439 33.2815 49.4725 32.72 48.7707 32.72C47.5012 32.72 47.4966 33.2293 47.4966 33.4496V33.4521H45.8404V32.9329C45.8404 32.2422 45.2694 31.6803 44.5679 31.6803C43.8661 31.6803 43.2947 32.2422 43.2947 32.9329H41.6384V31.8919C41.6384 31.2017 41.0666 30.6406 40.364 30.6406C39.6625 30.6406 39.0915 31.2017 39.0915 31.8919V33.0629H37.4353C37.4353 30.2456 37.4162 21.0799 37.4162 21.0795C37.4162 20.3479 36.8117 19.7537 36.0689 19.7537C35.3273 19.7537 34.724 20.3479 34.724 21.0778L34.7124 42.1039L33.057 42.1383L33.0139 41.1135L33.0131 36.7799C33.0131 35.4843 31.944 34.4301 30.6298 34.4301H30.388V37.5124L30.4877 38.1629L30.388 38.1944V42.5627L36.1923 49.3906C36.6743 49.6842 37.7541 50.2933 38.3885 50.4461L39.0224 50.5988V53H37.3661V51.8501C36.401 51.4713 35.3468 50.8175 35.2056 50.7289L35.0975 50.661L28.7317 43.1722L28.7296 37.6188L28.7069 36.9882L28.7317 36.9803V34.3328L28.6828 34.3262L28.7317 33.3627V32.8323L28.7657 32.8302L28.769 32.7739L30.6289 32.7735C31.5407 32.7735 32.3833 33.0749 33.0603 33.5821L33.0674 21.0766C33.0674 19.4336 34.4135 18.0966 36.0685 18.0966C37.7247 18.0966 39.0721 19.4336 39.0721 21.077C39.0721 21.077 39.0812 25.6048 39.087 29.2742C39.4851 29.0822 39.9215 28.9827 40.3635 28.9831C40.8912 28.9827 41.4092 29.1245 41.8631 29.3935C42.3171 29.6625 42.6902 30.0488 42.9432 30.5118C43.4244 30.192 43.9896 30.0217 44.5675 30.0224C45.0673 30.0221 45.5589 30.1495 45.9956 30.3924C46.4324 30.6354 46.7998 30.9859 47.0631 31.4108C47.5202 31.1835 48.0953 31.0625 48.7703 31.0625C50.3855 31.0625 51.6997 32.3673 51.6997 33.9709L51.8033 36.0748L51.8041 45.8226C51.8041 47.7224 50.9814 49.4767 49.5325 50.6995V53ZM13.1075 46.481L11.5775 45.8462C12.1112 44.5602 12.3932 43.0989 12.3932 41.6216C12.3932 38.4204 11.0819 35.4748 8.97098 33.9345L8.48032 33.5767L9.97509 29.1355L11.3717 29.1786C12.105 29.2063 12.787 28.9189 13.3133 28.4142C13.5711 28.1694 13.7774 27.8755 13.9201 27.5499C14.0628 27.2242 14.139 26.8733 14.1443 26.5178L14.1526 26.0213L8.37059 25.9352L5.47754 32.4149V45.9999H3.82129V32.0625L7.31598 24.2632L15.7674 24.3895L15.8109 25.1588C15.8179 25.2508 15.8208 25.3141 15.8192 25.3804L15.8001 26.5451C15.7921 27.1197 15.6693 27.6869 15.439 28.2134C15.2087 28.7398 14.8755 29.215 14.459 29.6108C13.6201 30.417 12.4956 30.8572 11.3324 30.8348L11.1523 30.829L10.4289 32.978C12.6752 34.8951 14.0486 38.1438 14.0486 41.6216C14.0495 43.3142 13.724 44.9949 13.1075 46.481Z" fill="#121212"/>
<path d="M19.487 53H17.8308V47.182H2.85205V53H1.1958V45.5257H19.487V53ZM24.575 17.442H14.3042V9.39093H24.575V17.442ZM15.9604 15.7857H22.9188V11.0472H15.9604V15.7857ZM13.9212 20.0493H30.2982V21.7056H13.9212V20.0493ZM17.69 24.3121H30.2982V25.9683H17.69V24.3121Z" fill="#121212"/>
<path d="M17.6899 28.5753H30.2981V30.2315H17.6899V28.5753Z" fill="#121212"/>
<path d="M13.9211 32.8389H26.1252V34.4951H13.9211V32.8389Z" fill="#121212"/>
<path d="M36.8997 15.4681H35.2434V13.8119H36.8997V15.4681ZM36.8997 12.1556H35.2434V10.4994H36.8997V12.1556ZM35.2434 8.84312V8.8071H36.8997L35.2434 8.84312Z" fill="#121212"/>
</g>
<defs>
<clipPath id="clip0_12_137">
<rect width="53" height="53" fill="white"/>
</clipPath>
</defs>
</svg>
