<svg width="61" height="52" viewBox="0 0 61 52" fill="none" xmlns="http://www.w3.org/2000/svg">
<path fill-rule="evenodd" clip-rule="evenodd" d="M57.4981 21.4434C57.7331 21.4431 57.9654 21.4935 58.1791 21.5913C58.3927 21.689 58.5828 21.8318 58.7362 22.0098C58.8896 22.1878 59.0028 22.3969 59.0679 22.6227C59.133 22.8485 59.1486 23.0856 59.1136 23.318L58.2264 29.2314C57.5318 33.8628 55.198 38.091 51.6495 41.1471C48.1009 44.2031 43.5733 45.884 38.8902 45.884H21.2416C16.5585 45.884 12.0309 44.2031 8.48234 41.1471C4.93379 38.091 2.59999 33.8628 1.90542 29.2314L1.01823 23.318C0.983197 23.0856 0.998783 22.8485 1.06391 22.6227C1.12905 22.3969 1.24219 22.1878 1.3956 22.0098C1.54901 21.8318 1.73907 21.689 1.95277 21.5913C2.16646 21.4935 2.39876 21.4431 2.63375 21.4434H57.4981Z" stroke="#121212" stroke-width="2" stroke-miterlimit="2" stroke-linecap="round" stroke-linejoin="round"/>
<path d="M49.0073 36.4549C45.701 39.1702 41.5542 40.6527 37.2758 40.6489M43.5082 45.2767V50.7722H16.6235V45.2767M5.99182 21.4434C7.03252 20.1765 8.31382 19.1282 9.76179 18.359C9.53834 17.3551 9.55306 16.3127 9.80476 15.3155C10.0565 14.3183 10.5382 13.3938 11.2113 12.6162C11.8844 11.8385 12.7303 11.2293 13.6811 10.8372C14.632 10.4451 15.6614 10.2812 16.687 10.3584C17.6217 9.41079 18.7649 8.69486 20.0255 8.26774C21.286 7.84062 22.629 7.71415 23.9471 7.89843C25.5297 -0.424822 34.068 -0.196303 38.5614 3.2486C44.0691 3.48079 44.5701 6.58963 44.5701 6.58963C45.433 6.74244 46.253 7.07894 46.9744 7.57635C47.6959 8.07376 48.3019 8.72045 48.7516 9.47259C49.2013 10.2247 49.484 11.0647 49.5806 11.9357C49.6772 12.8067 49.5855 13.6882 49.3116 14.5206C49.9287 15.0974 50.486 15.7353 50.976 16.4245C52.1682 16.6979 53.2513 17.322 54.0855 18.2166C54.9197 19.1111 55.4669 20.235 55.6564 21.4434M23.3447 15.9443L22.1226 15.3333M42.8972 16.5553L43.5082 15.9443" stroke="#121212" stroke-width="2" stroke-miterlimit="2" stroke-linecap="round" stroke-linejoin="round"/>
</svg>
